<svg width="180" height="270" viewBox="0 0 180 270" fill="none" xmlns="http://www.w3.org/2000/svg">
<rect width="180" height="270" fill="white"/>
<path d="M9 251.919C9 256.89 13.029 260.919 18 260.919H162.012C166.983 260.919 171.012 256.89 171.012 251.919V17.919C171.012 12.948 166.983 8.91901 162.012 8.91901H18C13.029 8.91901 9 12.948 9 17.919V251.919Z" stroke="white"/>
<path d="M18 21.825C18 19.669 19.525 17.925 21.408 17.925H158.593C160.476 17.925 162.001 19.669 162.001 21.825V248.013C162.001 250.167 160.476 251.913 158.593 251.913H21.408C19.526 251.913 18 250.167 18 248.013V21.825Z" stroke="white" stroke-dasharray="1.36 1.36"/>
</svg>
